<svg width="48" height="48" viewBox="0 0 48 48" fill="none" xmlns="http://www.w3.org/2000/svg">
<path d="M41.7241 32.3563L43.5 25.6969V21.75C42.7373 12.9382 35.2563 6 26.25 6H23.25V21.75H12.3898L10.7169 14.3655C10.5695 13.6968 10.1988 13.0982 9.66591 12.6683C9.13297 12.2384 8.46955 12.0027 7.78481 12H1.5V15H7.78481L11.5793 31.7503C10.2253 32.109 8.99877 32.8398 8.0387 33.8598C7.07863 34.8798 6.42339 36.1482 6.14722 37.5215C5.87104 38.8948 5.98496 40.3179 6.47608 41.6298C6.96719 42.9416 7.81587 44.0897 8.92597 44.944C10.0361 45.7983 11.3632 46.3246 12.7571 46.4633C14.151 46.6021 15.5558 46.3477 16.8126 45.729C18.0693 45.1104 19.1276 44.1521 19.8677 42.9628C20.6078 41.7735 21 40.4008 21 39C21 38.7469 20.9875 38.4969 20.9625 38.25H30.7875C30.7628 38.4967 30.7503 38.7467 30.75 39C30.7494 40.33 31.1026 41.6362 31.7732 42.7848C32.4438 43.9334 33.4078 44.8829 34.5663 45.5362C35.7248 46.1894 37.0362 46.5229 38.3661 46.5023C39.6959 46.4817 40.9964 46.1078 42.1342 45.419C43.2719 44.7302 44.206 43.7513 44.8408 42.5825C45.4755 41.4137 45.788 40.0972 45.7463 38.7678C45.7046 37.4385 45.3101 36.1441 44.6033 35.0175C43.8965 33.8908 42.9028 32.9724 41.7241 32.3563ZM26.25 9C33.601 9 39.6698 14.5948 40.4216 21.75H26.25V9ZM13.5 43.5C12.61 43.5 11.74 43.2361 10.9999 42.7416C10.2599 42.2471 9.68314 41.5443 9.34254 40.7221C9.00195 39.8998 8.91283 38.995 9.08647 38.1221C9.2601 37.2492 9.68868 36.4474 10.318 35.818C10.9474 35.1887 11.7492 34.7601 12.6221 34.5865C13.495 34.4128 14.3998 34.5019 15.2221 34.8425C16.0443 35.1831 16.7471 35.7599 17.2416 36.4999C17.7361 37.24 18 38.11 18 39C17.9986 40.1931 17.5241 41.3369 16.6805 42.1805C15.8369 43.0241 14.6931 43.4986 13.5 43.5ZM31.759 35.25H19.991C19.4272 34.2754 18.6516 33.4399 17.7215 32.8053C16.7914 32.1707 15.7307 31.7532 14.6176 31.5836L13.0695 24.75H40.5V25.3031L38.8406 31.5251C38.6442 31.509 38.4471 31.5005 38.25 31.4997C36.9342 31.5007 35.6418 31.8478 34.5025 32.506C33.3632 33.1643 32.4171 34.1106 31.759 35.25ZM38.25 43.5C37.36 43.5 36.49 43.2361 35.7499 42.7416C35.0099 42.2471 34.4331 41.5443 34.0925 40.7221C33.7519 39.8998 33.6628 38.995 33.8365 38.1221C34.0101 37.2492 34.4387 36.4474 35.068 35.818C35.6974 35.1887 36.4992 34.7601 37.3721 34.5865C38.245 34.4128 39.1498 34.5019 39.9721 34.8425C40.7943 35.1831 41.4971 35.7599 41.9916 36.4999C42.4861 37.24 42.75 38.11 42.75 39C42.7486 40.1931 42.2741 41.3369 41.4305 42.1805C40.5869 43.0241 39.4431 43.4986 38.25 43.5Z" fill="#C809A9"/>
</svg>
