<svg width="48" height="48" viewBox="0 0 48 48" fill="none" xmlns="http://www.w3.org/2000/svg">
<g clip-path="url(#clip0_174_105)">
<path d="M18.3899 47.0203L17.7435 46.6513L14.3781 44.7299L13.7236 44.3562L14.1005 43.7036L19.4976 34.3568L17.5216 33.1955L15.0149 37.5366L14.6417 38.1829L13.9935 37.8129L10.6281 35.8915L9.97278 35.5173L10.351 34.8643L19.9758 18.2456C18.8806 17.0262 18.0415 15.6538 17.4625 14.1312C16.8214 12.4457 16.5 10.7062 16.5 8.91703C16.5 7.70091 16.6522 6.49385 16.9557 5.29721L16.9558 5.29701C17.2635 4.085 17.7582 2.91999 18.4357 1.80317L18.8193 1.17077L19.4569 1.54554L22.7262 3.46694L22.9641 3.60675C23.1447 3.10718 23.44 2.6586 23.8507 2.27111C24.562 1.5999 25.4175 1.25 26.3846 1.25C27.4125 1.25 28.3026 1.61482 28.997 2.34942C29.6688 3.06014 30.0192 3.91523 30.0192 4.8821C30.0192 5.90965 29.6538 6.79928 28.9186 7.49308C28.2073 8.16429 27.3517 8.51419 26.3846 8.51419C25.3568 8.51419 24.4667 8.14937 23.7723 7.41477C23.1089 6.713 22.7589 5.87048 22.7502 4.91858C22.4621 5.46078 22.2507 6.01195 22.1131 6.57265L18.3899 47.0203ZM18.3899 47.0203L18.7638 46.3768L30.2737 26.5716M18.3899 47.0203L30.2737 26.5716M30.2737 26.5716C30.5417 27.0487 30.7523 27.5442 30.9067 28.0585C31.1737 28.9477 31.3077 29.8677 31.3077 30.821C31.3077 31.5952 31.2183 32.353 31.04 33.0956C30.8661 33.8193 30.5747 34.536 30.16 35.2463L29.7782 35.9003L30.4358 36.2758L33.8012 38.1972L34.4565 38.5713L34.8266 37.9138C35.4337 36.8354 35.9054 35.6904 36.2418 34.4804C36.5808 33.261 36.75 32.0085 36.75 30.7249C36.75 28.7119 36.2549 26.5848 35.2948 24.3513L35.2947 24.3512C34.3032 22.0461 32.7372 20.2639 30.6071 19.0281L30.6057 19.0273L26.2815 16.5311C26.281 16.5308 26.2806 16.5305 26.2801 16.5303C24.8529 15.6982 23.7654 14.6004 23.0007 13.2333L23.0006 13.2331C22.2296 11.856 21.8462 10.3892 21.8462 8.82096C21.8462 8.04677 21.9355 7.29793 22.113 6.57292L30.2737 26.5716ZM31.1923 18.1212C29.9341 18.1212 28.8386 17.6645 27.9464 16.7716C27.9464 16.7716 27.9464 16.7715 27.9464 16.7715M31.1923 18.1212L27.3462 13.5284C27.3462 14.5852 27.7231 15.4895 28.4769 16.2414L27.9464 16.7715M31.1923 18.1212C32.4505 18.1212 33.5464 17.6645 34.4397 16.772C35.332 15.8804 35.7885 14.7857 35.7885 13.5284C35.7885 12.2711 35.332 11.1763 34.4397 10.2848C33.5464 9.3923 32.4505 8.93559 31.1923 8.93559C29.9341 8.93559 28.8386 9.39232 27.9464 10.2852C27.9464 10.2852 27.9464 10.2852 27.9464 10.2853M31.1923 18.1212L27.9464 10.2853M27.9464 16.7715C27.0532 15.8802 26.5962 14.7857 26.5962 13.5284C26.5962 12.2711 27.0532 11.1765 27.9464 10.2853M27.9464 16.7715V10.2853" stroke="#FF9900" stroke-width="1.5"/>
</g>
<defs>
<clipPath id="clip0_174_105">
<rect width="48" height="48" fill="white"/>
</clipPath>
</defs>
</svg>
