<svg width="48" height="48" viewBox="0 0 48 48" fill="none" xmlns="http://www.w3.org/2000/svg">
<path d="M9 6V42H39V6H9ZM7.5 3H40.5C40.8978 3 41.2794 3.15804 41.5607 3.43934C41.842 3.72064 42 4.10218 42 4.5V43.5C42 43.8978 41.842 44.2794 41.5607 44.5607C41.2794 44.842 40.8978 45 40.5 45H7.5C7.10218 45 6.72064 44.842 6.43934 44.5607C6.15804 44.2794 6 43.8978 6 43.5V4.5C6 4.10218 6.15804 3.72064 6.43934 3.43934C6.72064 3.15804 7.10218 3 7.5 3Z" fill="#177C0E"/>
<path d="M31.5 6H34.5V42H31.5V6ZM4.5 9H10.5C11.5 9 12 9.5 12 10.5C12 11.5 11.5 12 10.5 12H4.5C3.5 12 3 11.5 3 10.5C3 9.5 3.5 9 4.5 9ZM4.5 18H10.5C11.5 18 12 18.5 12 19.5C12 20.5 11.5 21 10.5 21H4.5C3.5 21 3 20.5 3 19.5C3 18.5 3.5 18 4.5 18ZM4.5 27H10.5C11.5 27 12 27.5 12 28.5C12 29.5 11.5 30 10.5 30H4.5C3.5 30 3 29.5 3 28.5C3 27.5 3.5 27 4.5 27ZM4.5 36H10.5C11.5 36 12 36.5 12 37.5C12 38.5 11.5 39 10.5 39H4.5C3.5 39 3 38.5 3 37.5C3 36.5 3.5 36 4.5 36Z" fill="#177C0E"/>
</svg>
