<svg width="48" height="48" viewBox="0 0 48 48" fill="none" xmlns="http://www.w3.org/2000/svg">
<path d="M14.8 14H9.2C8.88174 14 8.57652 14.1264 8.35147 14.3515C8.12643 14.5765 8 14.8817 8 15.2V32.8C8 32.9576 8.03104 33.1136 8.09134 33.2592C8.15165 33.4048 8.24004 33.5371 8.35147 33.6485C8.4629 33.76 8.59519 33.8484 8.74078 33.9087C8.88637 33.969 9.04241 34 9.2 34H14.8C14.9576 34 15.1136 33.969 15.2592 33.9087C15.4048 33.8484 15.5371 33.76 15.6485 33.6485C15.76 33.5371 15.8483 33.4048 15.9087 33.2592C15.969 33.1136 16 32.9576 16 32.8V15.2C16 14.8817 15.8736 14.5765 15.6485 14.3515C15.4235 14.1264 15.1183 14 14.8 14ZM38.8 14H33.2C32.8817 14 32.5765 14.1264 32.3515 14.3515C32.1264 14.5765 32 14.8817 32 15.2V32.8C32 32.9576 32.031 33.1136 32.0913 33.2592C32.1516 33.4048 32.24 33.5371 32.3515 33.6485C32.4629 33.76 32.5952 33.8484 32.7408 33.9087C32.8864 33.969 33.0424 34 33.2 34H38.8C38.9576 34 39.1136 33.969 39.2592 33.9087C39.4048 33.8484 39.5371 33.76 39.6485 33.6485C39.76 33.5371 39.8484 33.4048 39.9087 33.2592C39.969 33.1136 40 32.9576 40 32.8V15.2C40 14.8817 39.8736 14.5765 39.6485 14.3515C39.4235 14.1264 39.1183 14 38.8 14Z" fill="white" stroke="#C80909" stroke-width="1.5" stroke-linecap="round" stroke-linejoin="round"/>
<path d="M16 24H32M2 28.8V19.2C2 18.8817 2.12643 18.5765 2.35147 18.3515C2.57652 18.1264 2.88174 18 3.2 18H6.8C7.11826 18 7.42348 18.1264 7.64853 18.3515C7.87357 18.5765 8 18.8817 8 19.2V28.8C8 29.1183 7.87357 29.4235 7.64853 29.6485C7.42348 29.8736 7.11826 30 6.8 30H3.2C2.88174 30 2.57652 29.8736 2.35147 29.6485C2.12643 29.4235 2 29.1183 2 28.8V28.8ZM46 28.8V19.2C46 18.8817 45.8736 18.5765 45.6485 18.3515C45.4235 18.1264 45.1183 18 44.8 18H41.2C40.8817 18 40.5765 18.1264 40.3515 18.3515C40.1264 18.5765 40 18.8817 40 19.2V28.8C40 29.1183 40.1264 29.4235 40.3515 29.6485C40.5765 29.8736 40.8817 30 41.2 30H44.8C45.1183 30 45.4235 29.8736 45.6485 29.6485C45.8736 29.4235 46 29.1183 46 28.8V28.8Z" stroke="#C80909" stroke-width="1.5" stroke-linecap="round" stroke-linejoin="round"/>
</svg>
