<svg width="41" height="40" viewBox="0 0 41 40" fill="none" xmlns="http://www.w3.org/2000/svg">
<path d="M23.3218 22.2001L36.4468 9.0751L33.842 6.47026C30.1791 2.80745 25.2112 0.749721 20.0312 0.749756C14.8512 0.749791 9.88331 2.80758 6.2205 6.47044C2.55769 10.1333 0.499965 15.1012 0.5 20.2812C0.500035 25.4612 2.55783 30.4291 6.22069 34.0919L8.82516 36.6968L21.2002 24.3218L36.6288 39.7501H40.8715L23.3218 22.2001ZM20.0314 3.7501C22.2031 3.74418 24.3545 4.16906 26.361 5.00016C28.3675 5.83126 30.1892 7.05206 31.7207 8.59191L32.2042 9.07547L26.855 14.4247C25.0401 12.572 23.0677 10.8805 20.9601 9.36929C18.5961 7.69697 16.3252 6.52594 14.2106 5.88826C13.6844 5.72859 13.1494 5.59935 12.6082 5.50116C14.9114 4.34438 17.454 3.74459 20.0314 3.7501ZM8.82516 32.4541L8.34159 31.9706C5.88648 29.5119 4.26697 26.3432 3.71234 22.9131C3.15772 19.483 3.69608 15.9654 5.25122 12.8582C5.34945 13.3993 5.4787 13.9343 5.63831 14.4606C6.27581 16.5752 7.44769 18.846 9.11934 21.21C10.6306 23.3177 12.3221 25.29 14.1747 27.1049L8.82516 32.4541ZM16.297 24.9822C15.1854 23.8915 13.2754 21.8906 11.5685 19.4774C9.42422 16.4459 7.20066 12.1743 8.40412 8.65397C11.9123 7.45463 16.1666 9.66047 19.1858 11.7887C21.6106 13.498 23.6325 15.4276 24.7319 16.5473L16.297 24.9822Z" fill="#ACAF00"/>
</svg>
