<svg width="38" height="50" viewBox="0 0 38 50" fill="none" xmlns="http://www.w3.org/2000/svg">
<path d="M13.95 6.39334e-07C12.988 -0.000503688 12.0495 0.297376 11.2639 0.852587C10.4783 1.4078 9.88417 2.19301 9.5635 3.1H4.65C3.41674 3.1 2.234 3.58991 1.36195 4.46195C0.489909 5.334 0 6.51674 0 7.75V44.95C0 46.1833 0.489909 47.366 1.36195 48.238C2.234 49.1101 3.41674 49.6 4.65 49.6H32.55C33.7833 49.6 34.966 49.1101 35.838 48.238C36.7101 47.366 37.2 46.1833 37.2 44.95V7.75C37.2 6.51674 36.7101 5.334 35.838 4.46195C34.966 3.58991 33.7833 3.1 32.55 3.1H27.6365C27.3158 2.19301 26.7217 1.4078 25.9361 0.852587C25.1505 0.297376 24.212 -0.000503688 23.25 6.39334e-07H13.95ZM12.4 4.65C12.4 4.23891 12.5633 3.84467 12.854 3.55399C13.1447 3.2633 13.5389 3.1 13.95 3.1H23.25C23.6611 3.1 24.0553 3.2633 24.346 3.55399C24.6367 3.84467 24.8 4.23891 24.8 4.65C24.8 5.06109 24.6367 5.45533 24.346 5.74602C24.0553 6.0367 23.6611 6.2 23.25 6.2H13.95C13.5389 6.2 13.1447 6.0367 12.854 5.74602C12.5633 5.45533 12.4 5.06109 12.4 4.65ZM16.5974 18.1474L11.1724 23.5724C10.89 23.8545 10.5097 24.0167 10.1107 24.0254C9.71165 24.034 9.32466 23.8884 9.0303 23.6189L6.7053 21.4954C6.54731 21.3604 6.41809 21.1949 6.32533 21.0089C6.23257 20.823 6.17816 20.6202 6.16534 20.4128C6.15252 20.2053 6.18155 19.9974 6.2507 19.8014C6.31985 19.6054 6.42771 19.4254 6.56787 19.2719C6.70803 19.1184 6.87762 18.9947 7.06655 18.9081C7.25549 18.8215 7.45991 18.7738 7.66766 18.7678C7.87541 18.7618 8.08225 18.7976 8.27586 18.8732C8.46948 18.9488 8.64592 19.0625 8.7947 19.2076L10.0254 20.3298L14.4026 15.9526C14.5467 15.8085 14.7178 15.6942 14.9061 15.6162C15.0944 15.5382 15.2962 15.498 15.5 15.498C15.7038 15.498 15.9056 15.5382 16.0939 15.6162C16.2822 15.6942 16.4533 15.8085 16.5974 15.9526C16.7415 16.0967 16.8558 16.2678 16.9338 16.4561C17.0118 16.6444 17.052 16.8462 17.052 17.05C17.052 17.2538 17.0118 17.4556 16.9338 17.6439C16.8558 17.8322 16.7415 18.0033 16.5974 18.1474ZM16.5974 31.4526C16.7417 31.5966 16.8563 31.7676 16.9344 31.9559C17.0125 32.1442 17.0528 32.3461 17.0528 32.55C17.0528 32.7539 17.0125 32.9558 16.9344 33.1441C16.8563 33.3324 16.7417 33.5034 16.5974 33.6474L11.1724 39.0724C10.89 39.3545 10.5097 39.5167 10.1107 39.5254C9.71165 39.534 9.32466 39.3884 9.0303 39.1189L6.7053 36.9954C6.41734 36.7145 6.24987 36.3327 6.23826 35.9306C6.22665 35.5285 6.37182 35.1376 6.6431 34.8406C6.91437 34.5436 7.29049 34.3636 7.69199 34.3388C8.09349 34.314 8.48891 34.4462 8.7947 34.7076L10.0254 35.8329L14.4026 31.4526C14.5466 31.3083 14.7176 31.1937 14.9059 31.1156C15.0942 31.0375 15.2961 30.9972 15.5 30.9972C15.7039 30.9972 15.9058 31.0375 16.0941 31.1156C16.2824 31.1937 16.4534 31.3083 16.5974 31.4526ZM21.7 33.325H29.45C29.8611 33.325 30.2553 33.4883 30.546 33.779C30.8367 34.0697 31 34.4639 31 34.875C31 35.2861 30.8367 35.6803 30.546 35.971C30.2553 36.2617 29.8611 36.425 29.45 36.425H21.7C21.2889 36.425 20.8947 36.2617 20.604 35.971C20.3133 35.6803 20.15 35.2861 20.15 34.875C20.15 34.4639 20.3133 34.0697 20.604 33.779C20.8947 33.4883 21.2889 33.325 21.7 33.325ZM20.15 19.375C20.15 18.9639 20.3133 18.5697 20.604 18.279C20.8947 17.9883 21.2889 17.825 21.7 17.825H29.45C29.8611 17.825 30.2553 17.9883 30.546 18.279C30.8367 18.5697 31 18.9639 31 19.375C31 19.7861 30.8367 20.1803 30.546 20.471C30.2553 20.7617 29.8611 20.925 29.45 20.925H21.7C21.2889 20.925 20.8947 20.7617 20.604 20.471C20.3133 20.1803 20.15 19.7861 20.15 19.375Z" fill="#077187"/>
</svg>
